<mxfile host="app.diagrams.net" modified="2024-03-09T15:10:29.975Z" agent="Mozilla/5.0 (Macintosh; Intel Mac OS X 10_15_7) AppleWebKit/537.36 (KHTML, like Gecko) Chrome/101.0.0.0 Safari/537.36" version="24.0.4" etag="KRCVb55l34F10r6ejUi6" type="github">
  <diagram name="Страница — 1" id="j0Ra11BkZckmH_alGLK_">
    <mxGraphModel>
      <root>
        <mxCell id="0" />
        <mxCell id="1" parent="0" />
      </root>
    </mxGraphModel>
  </diagram>
</mxfile>
